<svg xmlns="http://www.w3.org/2000/svg" width="138" height="40" viewBox="0 0 138 40">
    <g fill="none" fill-rule="evenodd">
        <rect width="138" height="40" fill="#4C5F66" opacity=".751" rx="7"/>
        <path fill="#FFF" d="M52.925 30.723h2.33l-5.102-13.398h-2.36l-5.102 13.398h2.252l1.303-3.556h5.386l1.293 3.556zM48.86 19.758h.167l2.047 5.663h-4.27l2.056-5.663zm12.576.687c-1.45 0-2.703.687-3.35 1.838h-.156v-1.671h-2.027V34h2.105v-4.81h.167c.558 1.068 1.762 1.7 3.28 1.7 2.694 0 4.407-2.015 4.407-5.228 0-3.212-1.713-5.217-4.426-5.217zm-.598 8.653c-1.762 0-2.869-1.319-2.869-3.426 0-2.117 1.107-3.436 2.88-3.436 1.782 0 2.85 1.291 2.85 3.426 0 2.145-1.068 3.436-2.86 3.436zm11.518-8.653c-1.45 0-2.703.687-3.35 1.838h-.156v-1.671h-2.027V34h2.105v-4.81h.167c.558 1.068 1.763 1.7 3.28 1.7 2.694 0 4.408-2.015 4.408-5.228 0-3.212-1.714-5.217-4.427-5.217zm-.597 8.653c-1.763 0-2.87-1.319-2.87-3.426 0-2.117 1.107-3.436 2.88-3.436 1.782 0 2.85 1.291 2.85 3.426 0 2.145-1.068 3.436-2.86 3.436zm9.48-1.978c.158 2.396 2.263 3.928 5.397 3.928 3.35 0 5.445-1.607 5.445-4.17 0-2.014-1.195-3.128-4.093-3.769l-1.558-.362c-1.84-.408-2.585-.956-2.585-1.912 0-1.207 1.156-1.997 2.889-1.997 1.645 0 2.781.771 2.987 2.006h2.135C91.729 18.588 89.633 17 86.763 17c-3.085 0-5.141 1.588-5.141 3.974 0 1.968 1.165 3.138 3.721 3.704l1.822.418c1.87.418 2.693 1.03 2.693 2.052 0 1.188-1.293 2.052-3.055 2.052-1.89 0-3.203-.808-3.389-2.08H81.24zm12.655-8.96v2.498H92.14v1.68h1.753v5.71c0 1.95.93 2.73 3.27 2.73a6.81 6.81 0 0 0 1.127-.102v-1.662c-.294.028-.46.047-.784.047-1.048 0-1.508-.465-1.508-1.523v-5.2h2.39v-1.68h-2.39v-2.497h-2.105zm9.715 10.984c-1.831 0-2.86-1.272-2.86-3.482 0-2.19 1.029-3.472 2.86-3.472 1.822 0 2.86 1.281 2.86 3.472 0 2.2-1.038 3.482-2.86 3.482zm0 1.774c3.115 0 5.024-1.978 5.024-5.256 0-3.258-1.92-5.245-5.024-5.245-3.114 0-5.034 1.987-5.034 5.245 0 3.278 1.91 5.256 5.034 5.256zm5.985-.195h2.105v-5.97c0-1.42 1.126-2.377 2.713-2.377.353 0 .999.065 1.165.12v-1.968c-.225-.056-.626-.083-.93-.083-1.39 0-2.566.724-2.87 1.717h-.156v-1.55h-2.027v10.11zm10.724-8.607c1.557 0 2.576 1.03 2.625 2.618h-5.387c.118-1.578 1.205-2.618 2.762-2.618zm2.615 5.877c-.392.79-1.263 1.225-2.537 1.225-1.684 0-2.771-1.123-2.84-2.896v-.112h7.531v-.696c0-3.175-1.792-5.097-4.76-5.097-3.006 0-4.915 2.052-4.915 5.283 0 3.23 1.87 5.218 4.926 5.218 2.438 0 4.142-1.115 4.622-2.925h-2.027zM44.676 6.324v6.58h2.409c1.988 0 3.139-1.208 3.139-3.31 0-2.07-1.16-3.27-3.14-3.27h-2.408zm1.036.93h1.257c1.383 0 2.2.867 2.2 2.353 0 1.51-.803 2.367-2.2 2.367h-1.257v-4.72zm8.156 4.875c-.865 0-1.35-.625-1.35-1.71 0-1.076.485-1.706 1.35-1.706.86 0 1.35.63 1.35 1.706 0 1.08-.49 1.71-1.35 1.71zm0 .871c1.47 0 2.372-.971 2.372-2.581 0-1.6-.907-2.577-2.372-2.577-1.47 0-2.376.976-2.376 2.577 0 1.61.901 2.581 2.376 2.581zm10.163-5.062h-.994l-.897 3.79h-.079l-1.036-3.79h-.952l-1.035 3.79h-.074l-.902-3.79h-1.008l1.387 4.966h1.022l1.035-3.657h.08l1.04 3.657h1.03l1.383-4.966zm1.263 4.966h.994V10c0-.775.49-1.258 1.29-1.258.74 0 1.1.396 1.1 1.195v2.968h.994V9.69c0-1.18-.634-1.847-1.757-1.847-.758 0-1.345.333-1.59.885h-.074v-.789h-.957v4.966zm6.057 0h.994V6h-.994v6.904zm4.846-.775c-.865 0-1.35-.625-1.35-1.71 0-1.076.485-1.706 1.35-1.706.86 0 1.35.63 1.35 1.706 0 1.08-.49 1.71-1.35 1.71zm0 .871c1.47 0 2.371-.971 2.371-2.581 0-1.6-.906-2.577-2.371-2.577-1.47 0-2.377.976-2.377 2.577 0 1.61.902 2.581 2.377 2.581zm5.447-.84c-.541 0-.934-.259-.934-.706 0-.438.314-.67 1.008-.716l1.23-.077v.415c0 .615-.555 1.085-1.304 1.085zm-.255.826c.662 0 1.212-.282 1.512-.78h.079v.698h.957V9.511c0-1.048-.712-1.669-1.974-1.669-1.142 0-1.956.548-2.058 1.4h.962c.111-.35.495-.551 1.05-.551.68 0 1.03.296 1.03.82v.43l-1.363.077c-1.198.073-1.873.588-1.873 1.482 0 .907.708 1.486 1.678 1.486zm6.04 0c.693 0 1.28-.323 1.58-.866h.079v.784h.952V6h-.994v2.727h-.074c-.272-.547-.855-.871-1.544-.871-1.271 0-2.09.994-2.09 2.563 0 1.573.81 2.567 2.09 2.567zm.281-4.25c.832 0 1.355.652 1.355 1.687 0 1.04-.518 1.683-1.355 1.683-.841 0-1.345-.634-1.345-1.687 0-1.044.508-1.683 1.345-1.683zm9.008 3.393c-.865 0-1.35-.625-1.35-1.71 0-1.076.485-1.706 1.35-1.706.86 0 1.35.63 1.35 1.706 0 1.08-.49 1.71-1.35 1.71zm0 .871c1.47 0 2.372-.971 2.372-2.581 0-1.6-.907-2.577-2.372-2.577-1.47 0-2.376.976-2.376 2.577 0 1.61.901 2.581 2.376 2.581zm3.801-.096h.994V10c0-.775.49-1.258 1.29-1.258.74 0 1.1.396 1.1 1.195v2.968h.994V9.69c0-1.18-.633-1.847-1.757-1.847-.758 0-1.345.333-1.59.885h-.074v-.789h-.957v4.966zm9.188-6.17v1.227h-.827v.825h.827v2.805c0 .958.44 1.34 1.544 1.34.194 0 .375-.022.532-.05v-.816c-.139.014-.217.023-.37.023-.495 0-.712-.228-.712-.748V8.786h1.128v-.825h-1.128V6.734h-.994zm3.538 6.17h.994v-2.9c0-.753.504-1.259 1.317-1.259.75 0 1.124.402 1.124 1.195v2.964h.994V9.698c0-1.18-.648-1.851-1.78-1.851-.758 0-1.341.333-1.586.89h-.079V6h-.984v6.904zm8.133-4.227c.735 0 1.216.506 1.239 1.286h-2.543c.055-.775.569-1.286 1.304-1.286zm1.234 2.887c-.185.387-.596.601-1.197.601-.795 0-1.309-.551-1.341-1.422v-.055h3.555v-.342c0-1.56-.846-2.504-2.247-2.504-1.419 0-2.32 1.008-2.32 2.595 0 1.587.883 2.563 2.325 2.563 1.151 0 1.956-.547 2.182-1.436h-.957z"/>
        <g fill="#FFF">
            <path d="M31.109 19.783c-.03-3.274 2.757-4.867 2.884-4.941-1.578-2.238-4.025-2.544-4.885-2.569-2.055-.21-4.048 1.196-5.095 1.196-1.068 0-2.68-1.175-4.417-1.14-2.236.033-4.327 1.292-5.475 3.246-2.367 3.986-.601 9.842 1.667 13.064 1.134 1.579 2.46 3.34 4.195 3.277 1.698-.067 2.332-1.052 4.38-1.052 2.03 0 2.626 1.052 4.396 1.012 1.822-.027 2.97-1.584 4.064-3.177 1.311-1.806 1.838-3.59 1.859-3.68-.042-.014-3.538-1.311-3.573-5.236M27.765 10.154c.914-1.11 1.538-2.62 1.365-4.154-1.322.057-2.974.89-3.926 1.975-.842.957-1.594 2.526-1.4 4 1.484.109 3.009-.728 3.961-1.82"/>
        </g>
    </g>
</svg>
