<svg xmlns="http://www.w3.org/2000/svg" xmlns:xlink="http://www.w3.org/1999/xlink" width="1440" height="90" viewBox="0 0 1440 90">
    <defs>
        <linearGradient id="prefix__b" x1="50%" x2="50%" y1="0%" y2="100%">
            <stop offset="0%" stop-color="#E6E9E9" stop-opacity=".213"/>
            <stop offset="100%" stop-color="#FFF"/>
        </linearGradient>
        <path id="prefix__a" d="M0 0H1440V90H0z"/>
    </defs>
    <g fill="none" fill-rule="evenodd">
        <mask id="prefix__c" fill="#fff">
            <use xlink:href="#prefix__a"/>
        </mask>
        <use fill="url(#prefix__b)" xlink:href="#prefix__a"/>
        <path fill="#F4F4F4" fill-rule="nonzero" d="M1377.2 34c21.692 0 39.2 17.508 39.2 39.2 0 21.692-17.508 39.2-39.2 39.2-21.692 0-39.2-17.508-39.2-39.2 0-21.692 17.508-39.2 39.2-39.2zm0 7.127c-17.755 0-32.073 14.318-32.073 32.073 0 17.755 14.318 32.073 32.073 32.073 17.755 0 32.073-14.318 32.073-32.073 0-17.755-14.318-32.073-32.073-32.073zm-.39 7.072c1.02-.113 2.04.22 2.797.914.757.693 1.179 1.679 1.157 2.705v2.005c3.352.566 6.935 1.83 10.635 3.842 1.722.953 2.345 3.122 1.392 4.844-.953 1.722-3.122 2.345-4.844 1.392-2.596-1.412-5.003-2.224-7.183-2.673v9.077c4.825 1.154 8.315 3.069 10.468 5.846 2.585 3.336 2.408 8.107 0 11.192-2.285 2.928-5.943 4.819-10.468 5.346v1.893c.018 1.285-.657 2.48-1.767 3.128-1.11.648-2.483.648-3.594 0-1.11-.648-1.785-1.843-1.767-3.128v-2.116c-3.29-.554-6.828-1.717-10.524-3.564-1.143-.577-1.893-1.72-1.965-2.999-.072-1.28.543-2.5 1.615-3.202 1.071-.702 2.436-.779 3.58-.202 2.649 1.323 5.104 2.12 7.294 2.561v-8.853c-4.879-1.147-8.377-3.138-10.468-6.014-2.5-3.44-2.087-8.203.39-11.248 2.264-2.782 5.794-4.64 10.078-5.234v-1.893c-.04-1.846 1.338-3.417 3.174-3.62zm3.954 29.567v7.517c2.513-.461 4.18-1.488 4.844-2.339.783-1.002.89-1.246 0-2.394-.618-.798-2.17-1.895-4.844-2.784zm-7.128-16.593c-2.256.497-3.855 1.409-4.566 2.283-.893 1.099-.956 1.42-.167 2.505.557.765 2.03 1.896 4.733 2.784z" mask="url(#prefix__c)" transform="rotate(32 1377.2 73.2)"/>
        <path fill="#E6E9E9" d="M1008 52c36.69 0 42.274-32 67.068-32 18.844 0 32.634 31.2 66.932 32h-134z" mask="url(#prefix__c)" opacity=".342"/>
        <path fill="#E6E9E9" d="M46 89c36.69 0 42.274-32 67.068-32 18.844 0 32.634 31.2 66.932 32H46zM-14 43c23 0 26.5-20 42.042-20C39.855 23 48.5 42.5 70 43h-84z" mask="url(#prefix__c)" opacity=".584"/>
        <path fill="#E6E9E9" d="M1069 52c43.066 0 64.601-47 96.5-47 27.116 0 49.446 47 96.5 47h-193z" mask="url(#prefix__c)" opacity=".378"/>
        <path fill="#EBF6F6" d="M225.125 41.2c-.512 0-.995.099-1.458.243C222.199 39.366 219.765 38 217 38c-2.765 0-5.2 1.366-6.667 3.443-.463-.144-.947-.243-1.458-.243-2.692 0-4.875 2.15-4.875 4.8h26c0-2.651-2.183-4.8-4.875-4.8z" mask="url(#prefix__c)"/>
        <path fill="#E6E9E9" d="M107 89c43.066 0 64.601-47 96.5-47 27.116 0 49.446 47 96.5 47H107z" mask="url(#prefix__c)"/>
        <g fill="#F3F3F3" fill-rule="nonzero" mask="url(#prefix__c)">
            <g>
                <path d="M13.74 137.008c7.3-.255 13.397 5.431 13.652 12.731.255 7.3-5.431 13.398-12.731 13.653-7.3.255-13.398-5.431-13.653-12.731-.255-7.3 5.431-13.398 12.731-13.653zm.083 2.399c-5.975.208-10.625 5.195-10.416 11.17.208 5.975 5.195 10.625 11.17 10.416 5.975-.208 10.625-5.195 10.416-11.17-.208-5.975-5.195-10.625-11.17-10.416zm-.048 2.384c.342-.05.689.05.952.275.263.224.416.55.421.897l.024.674c1.134.151 2.355.534 3.624 1.168.59.3.826 1.023.525 1.614-.3.59-1.023.826-1.614.525-.89-.444-1.71-.69-2.448-.815l.106 3.055c1.638.332 2.835.935 3.592 1.844.91 1.093.905 2.7.131 3.767-.734 1.012-1.943 1.691-3.46 1.922l.023.637c.02.432-.192.842-.558 1.073-.366.231-.828.248-1.21.043-.38-.205-.622-.6-.631-1.033l-.025-.712c-1.114-.147-2.318-.497-3.583-1.075-.392-.18-.658-.557-.697-.986-.04-.43.153-.848.506-1.097.352-.249.81-.29 1.202-.11.907.414 1.743.653 2.485.776l-.104-2.98c-1.655-.328-2.856-.957-3.593-1.9-.883-1.128-.8-2.736-.001-3.79.729-.963 1.895-1.63 3.33-1.88l-.023-.637c-.035-.62.41-1.166 1.026-1.255zm1.678 9.904l.088 2.53c.84-.185 1.39-.55 1.603-.845.252-.346.285-.43-.028-.805-.217-.261-.752-.612-1.663-.88zm-2.594-5.5c-.753.193-1.28.519-1.51.821-.287.38-.304.49-.026.845.196.251.705.614 1.625.882zM362.336 6.006c3.87-3.134 9.524-2.54 12.658 1.33 3.134 3.87 2.54 9.524-1.33 12.658-3.87 3.134-9.524 2.54-12.658-1.33-3.134-3.87-2.54-9.524 1.33-12.658zm1.03 1.271c-3.168 2.566-3.654 7.189-1.089 10.357 2.566 3.168 7.189 3.654 10.357 1.089 3.168-2.566 3.654-7.189 1.089-10.357-2.566-3.168-7.189-3.654-10.357-1.089zm.952 1.318c.166-.167.396-.255.631-.24.235.014.453.129.597.315l.29.358c.68-.384 1.502-.676 2.453-.851.445-.08.87.218.948.663.079.445-.218.87-.663.948-.667.123-1.214.326-1.668.561l1.311 1.62c1.028-.492 1.928-.654 2.713-.47.943.222 1.601 1.099 1.617 1.997.015.853-.364 1.718-1.095 2.466l.273.338c.19.227.241.538.137.814-.104.276-.35.474-.641.519-.292.045-.585-.071-.767-.303l-.306-.378c-.667.377-1.467.68-2.393.885-.287.062-.586-.033-.784-.251-.198-.218-.264-.524-.174-.805.09-.28.322-.49.61-.553.663-.147 1.216-.36 1.67-.597l-1.278-1.58c-1.037.5-1.948.651-2.737.44-.943-.252-1.558-1.162-1.556-2.063.002-.824.364-1.666 1.042-2.39l-.273-.338c-.274-.324-.255-.803.043-1.105zm4.978 4.705l1.086 1.341c.382-.445.53-.87.526-1.117-.005-.292-.021-.351-.346-.427-.225-.053-.66-.025-1.266.203zm-3.67-1.931c-.33.415-.484.808-.484 1.067-.001.325.034.392.332.471.21.056.636.045 1.247-.187z" transform="rotate(20 487.016 1520.314)"/>
            </g>
        </g>
        <g fill="#F3F3F3" fill-rule="nonzero" mask="url(#prefix__c)">
            <path d="M997.75 48.624c3.572-.76 7.068 1.511 7.827 5.083.76 3.573-1.51 7.07-5.083 7.828-3.573.76-7.069-1.51-7.828-5.083-.76-3.573 1.51-7.069 5.083-7.828zm.249 1.174c-2.924.621-4.781 3.48-4.16 6.404.622 2.924 3.481 4.781 6.405 4.16 2.924-.622 4.781-3.481 4.16-6.405-.622-2.924-3.481-4.78-6.405-4.16zm.183 1.178c.164-.054.344-.035.493.052.149.088.253.236.285.406l.07.33c.572-.024 1.206.058 1.886.26.317.097.496.432.399.75-.097.316-.432.495-.75.398-.476-.142-.901-.191-1.276-.189l.318 1.495c.835.021 1.477.214 1.929.596.542.46.68 1.251.391 1.844-.273.562-.81 1.001-1.536 1.246l.066.312c.048.211-.022.432-.182.577-.16.146-.386.194-.591.126-.206-.068-.359-.241-.4-.453l-.075-.349c-.561.024-1.185-.044-1.858-.218-.208-.055-.372-.217-.429-.425-.056-.209.002-.431.154-.584.152-.153.374-.214.583-.159.482.125.914.17 1.29.167l-.31-1.458c-.843-.019-1.489-.224-1.934-.624-.532-.48-.63-1.278-.33-1.866.276-.538.793-.968 1.477-1.215l-.066-.312c-.071-.303.1-.61.396-.707zm1.686 4.73l.263 1.239c.398-.164.637-.392.716-.555.094-.192.103-.236-.084-.394-.13-.11-.423-.236-.895-.29zm-1.754-2.482c-.355.16-.586.367-.672.535-.11.213-.108.268.06.419.118.106.4.241.877.293z"/>
        </g>
        <g fill="#E5F0F0" mask="url(#prefix__c)">
            <g>
                <path d="M48.575 3.32c-.522 0-1.016.102-1.489.251C45.587 1.416 43.101 0 40.277 0c-2.824 0-5.31 1.417-6.809 3.571-.473-.149-.967-.252-1.489-.252C29.229 3.32 27 5.55 27 8.3h26.554c0-2.75-2.229-4.98-4.979-4.98zM0 14.46c0-3.991 3.235-7.226 7.226-7.226.602 0 1.178.095 1.737.234 1.886-2.037 4.559-3.331 7.553-3.331 5.701 0 10.323 4.621 10.323 10.322H0z" transform="translate(450 11)"/>
            </g>
        </g>
        <g fill="#E5F0F0" mask="url(#prefix__c)">
            <g>
                <path d="M48.575 3.32c-.522 0-1.016.102-1.489.251C45.587 1.416 43.101 0 40.277 0c-2.824 0-5.31 1.417-6.809 3.571-.473-.149-.967-.252-1.489-.252C29.229 3.32 27 5.55 27 8.3h26.554c0-2.75-2.229-4.98-4.979-4.98zM0 14.46c0-3.991 3.235-7.226 7.226-7.226.602 0 1.178.095 1.737.234 1.886-2.037 4.559-3.331 7.553-3.331 5.701 0 10.323 4.621 10.323 10.322H0z" transform="translate(1186 12)"/>
            </g>
        </g>
        <path fill="#B8F7F7" d="M968.724 15.49c-2.29 0-4.145 1.856-4.145 4.145h15.398c0-3.27-2.652-5.922-5.923-5.922-.717 0-1.39.155-2.024.391-.396-.848-1.244-1.444-2.242-1.444-.261 0-.508.051-.745.126-.75-1.078-1.992-1.786-3.404-1.786s-2.655.708-3.405 1.786c-.236-.075-.483-.126-.745-.126-1.375 0-2.489 1.114-2.489 2.49h11.256c-.182.154-.373.299-.535.474-.32-.08-.651-.134-.997-.134z" mask="url(#prefix__c)" opacity=".33"/>
        <path fill="#EBF6F6" d="M164 55c0-6.186 4.822-11.2 10.77-11.2.897 0 1.755.148 2.589.363 2.81-3.156 6.794-5.163 11.256-5.163C197.112 39 204 46.163 204 55h-40z" mask="url(#prefix__c)"/>
        <path fill="#D8D8D8" d="M399.477 66.5c5.365 0 8.24.564 10.883 1.862 2.632 1.292 4.97 3.251 9.448 6.037 1.24.246 2.192 1.347 2.192 2.651v7.485c0 .315-.288.602-.605.602h-4.78c-.09 2.41-2.093 4.363-4.535 4.363s-4.446-1.953-4.535-4.363h-21.862c-.09 2.41-2.093 4.363-4.535 4.363-2.447 0-4.446-1.954-4.535-4.363h-6.008c-.317 0-.605-.287-.605-.602V79.74c0-2.965 2.444-5.398 5.423-5.398h3.798c4.413-2.753 6.74-4.697 9.353-5.98 2.644-1.298 5.534-1.862 10.903-1.862zm20.946 21c.205-.002.396.092.5.248.103.156.103.348 0 .504-.087.13-.234.217-.399.241l-.101.007h-3.846c-.205.002-.396-.092-.5-.248-.103-.156-.103-.348 0-.504.087-.13.234-.217.399-.241l.101-.007h3.846zm-18.033 0c.217-.002.419.092.528.248.11.156.11.348 0 .504-.091.13-.247.217-.421.241l-.107.007h-13.78c-.217.002-.419-.092-.528-.248-.11-.156-.11-.348 0-.504.091-.13.247-.217.421-.241l.107-.007h13.78zm22.19 0c.15-.002.288.092.363.248.076.156.076.348 0 .504-.062.13-.17.217-.29.241l-.073.007h-2.16c-.15.002-.288-.092-.363-.248-.076-.156-.076-.348 0-.504.062-.13.17-.217.29-.241l.073-.007h2.16zm-43.432-5.842c-2.124 0-3.325 1.752-3.325 3.31 0 1.835 1.476 3.328 3.325 3.328 1.843 0 3.345-1.494 3.345-3.328 0-1.559-1.13-3.31-3.345-3.31zm30.931 0c-1.865 0-3.325 1.447-3.325 3.31 0 1.834 1.483 3.328 3.326 3.328s3.325-1.494 3.325-3.328c0-1.707-1.306-3.31-3.325-3.31zm3.629-6.112h-39c-.165 1.276-.574 2.446-1.455 3.31-.889.87-2.216 1.372-4.043 1.467v3.61h5.536c.624-1.993 2.08-3.479 4.403-3.479 2.099 0 3.876 1.395 4.421 3.48h22.089c.518-1.945 2.156-3.48 4.421-3.48 2.193 0 3.87 1.375 4.421 3.48h4.29v-4.439c-1.708-.058-2.946-.468-3.78-1.222-.79-.716-1.147-1.677-1.303-2.727zM399.37 79.5c.78 0 .857.911.112.994l-.112.006h-7.734c-.813 0-.842-.907-.114-.993l.114-.007h7.734zm-23.91-3.954h-.037c-2.101 0-3.847 1.546-4.157 3.554 1.557-.097 2.52-.506 3.136-1.11.596-.583.904-1.409 1.058-2.444zm43.838 0h-2.362c.14.782.397 1.398.888 1.843.555.502 1.462.866 2.967.921v-1.26c0-.827-.67-1.504-1.493-1.504zm-19.254-7.824c-1.188-.046-2.193.02-3.534.076v6.544h10.317l-6.765-6.6-.018-.02zm1.814.038l6.745 6.582h8.862c-3.454-2.24-5.513-3.848-7.634-4.89-2.053-1.008-4.243-1.542-7.973-1.692zm-6.557.113c-2.687.235-4.494.743-6.198 1.58-2.12 1.041-4.18 2.65-7.633 4.89h13.83z" mask="url(#prefix__c)" transform="matrix(-1 0 0 1 795 0)"/>
        <g mask="url(#prefix__c)" opacity=".289">
            <g>
                <path fill="#706D2F" d="M5.184 22.099c-.455 0-.823-.369-.823-.823v-8.858c0-.454.368-.822.823-.822.455 0 .823.368.823.822v8.858c0 .454-.368.823-.823.823z" opacity=".607" transform="translate(1022 33)"/>
                <path fill="#93BC24" d="M10.367 11.663c0 2.863-2.32 5.184-5.183 5.184S0 14.527 0 11.663C0 8.801 2.32 0 5.184 0c2.862 0 5.183 8.8 5.183 11.663z" transform="translate(1022 33)"/>
                <path fill="#799B1F" d="M10.4 12c0 2.601-2.644 5-5.396 5-2.751 0-4.982-2.109-4.982-4.71 0-.1-.054-.335.008-.268 2.257 2.427 5.088 2.427 5.088 2.427C8 14 9.407 12.17 10.3 10.8c.05-.076.1 1.097.1 1.2z" transform="translate(1022 33)"/>
            </g>
        </g>
        <g mask="url(#prefix__c)" opacity=".384">
            <g opacity=".212">
                <path fill="#674447" d="M2.5 11c-.276 0-.5-.175-.5-.392V6.392C2 6.175 2.224 6 2.5 6s.5.175.5.392v4.216c0 .217-.224.392-.5.392z" transform="translate(68 33)"/>
                <path fill="#93BC24" d="M5 6.23C5 7.76 3.88 9 2.5 9S0 7.76 0 6.23C0 4.702 1.12 0 2.5 0S5 4.701 5 6.23z" transform="translate(68 33)"/>
                <path fill="#799B1F" d="M4.993 6.174C4.993 7.734 3.878 9 2.503 9 1.125 9 .01 7.735.01 6.174c0-.06-.027-.2.004-.16 1.128 1.455 2.26 1.455 2.544 1.455.85 0 1.981-.638 2.428-1.46.025-.046.006.103.006.165z" transform="translate(68 33)"/>
            </g>
        </g>
        <path fill="#D6D6D6" fill-rule="nonzero" d="M367.054 52.255c.268-.105.569-.088.825.048.256.135.443.376.513.66l.147.55c.95-.088 2.015 0 3.166.283.537.137.865.688.734 1.23-.132.543-.674.872-1.21.735-.808-.2-1.52-.248-2.145-.213l.669 2.494c1.393-.033 2.48.24 3.268.847.946.729 1.25 2.052.824 3.075-.404.97-1.256 1.756-2.444 2.23l.14.52c.099.351.004.729-.25.987-.253.26-.625.359-.973.261-.349-.097-.62-.376-.71-.73l-.155-.582c-.933.086-1.978.024-3.115-.215-.353-.076-.64-.336-.754-.682-.114-.346-.037-.726.202-.997.239-.27.603-.39.956-.315.815.17 1.539.211 2.165.174l-.652-2.433c-1.407.039-2.501-.254-3.28-.892-.93-.764-1.17-2.103-.722-3.12.408-.929 1.229-1.696 2.346-2.17l-.14-.52c-.146-.505.112-1.036.595-1.225zm8.176 11.276l1.393 1.185c.31.263-.08.734-.39.47l-1.392-1.184c-.31-.264.08-.734.39-.471zm-12.033.038c.107.13.09.324-.038.433l-1.393 1.184c-.128.11-.319.093-.426-.037-.108-.13-.091-.324.037-.433l1.393-1.185c.128-.11.32-.092.427.038zm7.105-3.476l.554 2.065c.647-.31 1.023-.712 1.14-.994.139-.333.15-.407-.176-.658-.226-.175-.727-.363-1.518-.413zm-9.18-1.768c.167 0 .302.137.302.307 0 .17-.135.307-.303.307h-1.818c-.167 0-.303-.137-.303-.307 0-.17.136-.307.303-.307h1.818zm17.575 0c.167 0 .303.137.303.307 0 .17-.136.307-.303.307h-1.818c-.168 0-.303-.137-.303-.307 0-.17.135-.307.303-.307h1.818zm-11.548-2.275c-.575.301-.942.668-1.07.96-.161.366-.155.46.14.7.206.17.689.373 1.487.421zm-5.383-3.972l1.393 1.184c.31.264-.08.734-.39.471l-1.392-1.185c-.31-.263.08-.734.39-.47zm14.894.037c.108.13.091.324-.037.433l-1.393 1.185c-.128.11-.32.092-.427-.038-.107-.13-.09-.324.038-.433l1.393-1.184c.128-.11.319-.093.426.037z" mask="url(#prefix__c)" opacity=".508" transform="rotate(-19 369 59)"/>
        <path fill="#E6E4E4" fill-rule="nonzero" d="M352.115 54.835l.697.592c.154.132-.04.367-.195.235l-.697-.592c-.154-.132.04-.367.195-.235zm-6.017.019c.054.065.046.161-.018.216l-.697.592c-.064.055-.16.047-.213-.018-.054-.065-.046-.162.018-.217l.697-.592c.064-.055.16-.046.213.019zm2.242-5.823c.12-.046.253-.04.365.015.113.056.194.157.223.277l.063.232c.42-.043.891-.012 1.4.102.236.055.378.286.317.516-.061.23-.303.373-.54.318-.356-.08-.671-.096-.947-.078l.281 1.052c.617-.022 1.097.087 1.442.34.415.303.542.861.347 1.296-.184.413-.565.75-1.094.957l.06.22c.041.148-.003.308-.117.419-.113.11-.278.155-.432.116-.154-.04-.272-.156-.31-.306l-.066-.245c-.413.042-.875.022-1.377-.073-.156-.03-.281-.138-.33-.284-.048-.146-.012-.307.095-.423.107-.116.27-.17.425-.14.36.069.68.082.957.062l-.274-1.026c-.623.025-1.106-.093-1.447-.359-.408-.318-.506-.883-.303-1.316.187-.395.554-.724 1.051-.931l-.059-.22c-.062-.212.055-.439.27-.521zm1.394 3.298l.233.871c.289-.134.457-.307.51-.427.064-.142.07-.173-.073-.278-.1-.072-.32-.15-.67-.166zm-4.673-.098c.083 0 .151.07.151.154 0 .085-.068.154-.151.154h-.91c-.083 0-.151-.07-.151-.154 0-.085.068-.154.152-.154h.909zm8.787 0c.084 0 .152.07.152.154 0 .085-.068.154-.152.154h-.909c-.083 0-.151-.07-.151-.154 0-.085.068-.154.151-.154h.91zm-5.487-1.595c-.256.13-.42.288-.479.412-.073.156-.07.196.058.296.09.07.303.154.656.17zm-2.978-1.528l.697.592c.154.132-.04.367-.195.235l-.697-.592c-.154-.132.04-.367.195-.235zm7.447.018c.054.065.046.162-.018.217l-.697.592c-.064.055-.16.046-.213-.019-.054-.065-.046-.161.018-.216l.697-.592c.064-.055.16-.047.213.018z" mask="url(#prefix__c)" opacity=".508" transform="rotate(23 349 52.35)"/>
        <g fill="#F4F4F4" fill-rule="nonzero" mask="url(#prefix__c)">
            <path d="M272.298-31.897c20.953-5.614 42.396 6.766 48.01 27.719 5.614 20.952-6.766 42.395-27.718 48.01-20.953 5.614-42.396-6.766-48.01-27.719-5.615-20.953 6.765-42.396 27.718-48.01zm1.845 6.884c-17.15 4.596-27.275 22.13-22.68 39.281 4.596 17.15 22.131 27.275 39.282 22.68 17.15-4.596 27.274-22.131 22.679-39.282-4.596-17.15-22.13-27.274-39.281-22.679zm1.454 6.932c.956-.373 2.027-.315 2.938.159.91.473 1.573 1.317 1.817 2.314l.519 1.936c3.384-.32 7.172-.028 11.267.958 1.91.476 3.074 2.41 2.598 4.32-.475 1.91-2.408 3.073-4.319 2.598-2.872-.692-5.408-.854-7.63-.723l2.35 8.767c4.96-.134 8.826.812 11.624 2.938 3.361 2.554 4.425 7.208 2.897 10.81-1.45 3.42-4.493 6.193-8.728 7.873l.49 1.83c.35 1.236.007 2.565-.897 3.478-.905.914-2.23 1.269-3.47.93-1.24-.338-2.202-1.318-2.517-2.564l-.548-2.044c-3.322.316-7.04.109-11.088-.718-1.254-.262-2.273-1.172-2.674-2.389-.401-1.217-.123-2.555.73-3.51.854-.956 2.152-1.384 3.407-1.122 2.9.592 5.478.726 7.708.586l-2.291-8.552c-5.01.155-8.904-.862-11.668-3.1-3.306-2.675-4.14-7.383-2.535-10.965 1.467-3.274 4.396-5.982 8.38-7.664l-.49-1.829c-.516-1.773.408-3.647 2.13-4.317zm11.47 27.536l1.946 7.261c2.309-1.096 3.653-2.52 4.074-3.513.497-1.17.537-1.434-.62-2.312-.803-.61-2.585-1.269-5.4-1.436zM275.89-4.728c-2.05 1.065-3.36 2.359-3.82 3.387-.579 1.293-.556 1.62.487 2.464.736.595 2.451 1.305 5.293 1.464z"/>
        </g>
    </g>
</svg>
