<svg xmlns="http://www.w3.org/2000/svg" width="74" height="68" viewBox="0 0 74 68">
    <path fill="#4C5F66" fill-rule="nonzero" d="M17.768 45.076a16.32 16.32 0 0 1-.613 5.968 3.548 3.548 0 0 0 1.127 3.722 3.532 3.532 0 0 0 3.858.448c3.533-1.782 8.229-4.878 11.085-9.639h2.342c8.029 0 15.45-4.288 19.467-11.248a22.51 22.51 0 0 0 0-22.493A22.48 22.48 0 0 0 35.567.59H22.479a22.47 22.47 0 0 0-18.627 9.905 22.508 22.508 0 0 0-2.22 20.993 22.482 22.482 0 0 0 16.143 13.588l-.007.001zm4.705-40.708h13.123c6.68 0 12.857 3.565 16.196 9.356a18.72 18.72 0 0 1 0 18.715 18.7 18.7 0 0 1-16.196 9.36H32.15c-.7 0-1.342.389-1.667 1.011-2.227 4.239-6.32 7.057-9.56 8.787.726-2.742.87-5.605.431-8.409a1.89 1.89 0 0 0-1.593-1.588A18.701 18.701 0 0 1 5.48 30.82a18.722 18.722 0 0 1 1.304-17.854 18.7 18.7 0 0 1 15.695-8.59l-.006-.007zM74 47.168a14.363 14.363 0 0 1-10.677 13.783c-.024.93.1 1.857.362 2.749a2.879 2.879 0 0 1-4.032 3.394 17.447 17.447 0 0 1-6.737-5.697h-1.003a14.222 14.222 0 0 1-13.495-9.724 1.894 1.894 0 0 1 1.171-2.459 1.88 1.88 0 0 1 1.472.121c.454.236.794.65.938 1.142a10.433 10.433 0 0 0 9.914 7.149h2.062a1.883 1.883 0 0 1 1.675 1.006 11.502 11.502 0 0 0 4.003 4.123 13.437 13.437 0 0 1 .059-3.657 1.894 1.894 0 0 1 1.595-1.585 10.457 10.457 0 0 0 8.923-10.365 10.455 10.455 0 0 0-8.961-10.33 1.908 1.908 0 0 1 .528-3.778 14.272 14.272 0 0 1 8.725 4.796A14.284 14.284 0 0 1 74 47.17zM15.978 15.867c0-1.042.843-1.889 1.887-1.889H40.21a1.89 1.89 0 0 1 0 3.778H17.865a1.888 1.888 0 0 1-1.887-1.89zm0 7.178c0-1.042.843-1.89 1.887-1.89H40.21a1.89 1.89 0 0 1 0 3.779H17.865a1.888 1.888 0 0 1-1.887-1.85v-.04zm0 7.177c0-1.041.843-1.888 1.887-1.888h15.3a1.89 1.89 0 0 1 0 3.777h-15.3a1.888 1.888 0 0 1-1.887-1.85v-.039z"/>
</svg>
