<svg id="Layer_1" data-name="Layer 1" xmlns="http://www.w3.org/2000/svg" viewBox="0 0 1119.88 245.46"><defs><style>.cls-1{fill:#262525}.cls-2{fill:#9bc626}</style></defs><title>Waitr_Linear_RGB</title><path class="cls-1" d="M555.41 78.42l-59.27 149.16-63.86-172.12 10.06-3.94L496.58 197l58.83-148.32L614.24 197l54.24-145.47 10.06 3.94-63.86 172.11zM794 225l-29.52-65.39h-76.55L658.42 225l-9.84-4.59 77.63-171.73 77.85 171.68zm-101-76.37h66.49l-33.28-73.49zm123.76 73.92V53.49h10.92v169.06zM971.38 64.42h-59v158.13h-10.99V64.42h-58.83V53.49h128.82zm107.16 80.71q-12.24 12-30.83 15.31l45.29 58.82-8.75 6.56-49.42-64.3h-37.22v61h-10.92V53.49h46.58q26.91 0 43.3 12.68A43 43 0 0 1 1090 82.8a52.82 52.82 0 0 1 4.48 22.09q.03 24.71-15.94 40.24zm-80.92 5.46h35.44a55.51 55.51 0 0 0 21.22-3.06 46.25 46.25 0 0 0 16.61-10.28q12.69-12.24 12.69-32.37 0-13.78-5.69-21.76A38.29 38.29 0 0 0 1064.1 71a52.18 52.18 0 0 0-16.61-5.36 105.63 105.63 0 0 0-14.22-1.2h-35.66z" transform="translate(-21.61 -20.49)"/><path class="cls-1" d="M357.65 223.26L184.73 123.6 11.8 223.26 11.8 5.42 0 0 0 245.46 184.73 139.16 369.46 245.46 369.46 0 357.65 5.41 357.65 223.26z"/><path class="cls-2" d="M332.92 16.75L184.73 84.74 36.51 16.75 36.51 180.26 184.73 95.08 332.92 180.26 332.92 16.75z"/><path class="cls-1" d="M1108.32 209.46a16 16 0 0 1 1.31-6.44 16.46 16.46 0 0 1 3.56-5.24 17.19 17.19 0 0 1 5.27-3.53 16.48 16.48 0 0 1 12.88 0 17.22 17.22 0 0 1 5.27 3.53 16.47 16.47 0 0 1 3.56 5.24 16 16 0 0 1 1.31 6.44 15.74 15.74 0 0 1-1.31 6.4 16.59 16.59 0 0 1-15.28 10 16.39 16.39 0 0 1-6.44-1.27 16.5 16.5 0 0 1-8.84-8.69 15.74 15.74 0 0 1-1.29-6.44zm2.62 0a13.52 13.52 0 0 0 1.09 5.38 14.42 14.42 0 0 0 3 4.47 13.91 13.91 0 0 0 19.79 0 14.45 14.45 0 0 0 3-4.47 13.52 13.52 0 0 0 1.09-5.38 13.71 13.71 0 0 0-1.09-5.46 13.89 13.89 0 0 0-7.42-7.42 14.18 14.18 0 0 0-10.91 0A13.89 13.89 0 0 0 1112 204a13.7 13.7 0 0 0-1.06 5.46zm7.49-9.38h6.57a11.12 11.12 0 0 1 2.55.29 6.76 6.76 0 0 1 2.22.95 4.93 4.93 0 0 1 1.56 1.67 5.08 5.08 0 0 1 .58 2.55 4.72 4.72 0 0 1-1.16 3.31 5.81 5.81 0 0 1-3.13 1.71l5 8.15h-4.07l-4.36-7.78h-2.4v7.78h-3.35zm6 8.15a7.12 7.12 0 0 0 2.76-.55 2.16 2.16 0 0 0 1.31-2.22 2 2 0 0 0-1.2-2 6.38 6.38 0 0 0-2.51-.51h-3.06v5.31z" transform="translate(-21.61 -20.49)"/></svg>