<svg viewBox="0 0 1160.4 285.55" xmlns="http://www.w3.org/2000/svg" xmlns:xlink="http://www.w3.org/1999/xlink"><clipPath id="a"><path d="m20.26 20.62h1119.84v245.46h-1119.84z"/></clipPath><g fill="#fff"><path d="m554.06 78.56-59.27 149.16-63.86-172.12 10.06-3.94 54.24 145.44 58.83-148.28 58.83 148.28 54.24-145.44 10.06 3.94-63.86 172.12z"/><path d="m691.61 148.77h66.49l-33.24-73.49zm101 76.32-29.48-65.39h-76.55l-29.52 65.39-9.84-4.59 77.64-171.68 77.85 171.68-10.06 4.59z"/><path d="m815.41 222.69v-169.06h10.92v169.06z"/><path d="m970.03 64.56h-59.05v158.13h-10.94v-158.13h-58.83v-10.93h128.82z"/><path d="m996.26 150.73h35.44a55.46 55.46 0 0 0 21.21-3.06 46.15 46.15 0 0 0 16.61-10.28q12.7-12.24 12.69-32.37 0-13.78-5.69-21.76a38.24 38.24 0 0 0 -13.78-12.14 52.12 52.12 0 0 0 -16.61-5.36 105.53 105.53 0 0 0 -14.22-1.2h-35.65zm80.92-5.46q-12.24 12-30.83 15.31l45.27 58.83-8.75 6.56-49.42-64.3h-37.19v61h-10.92v-169.04h46.58q26.91 0 43.3 12.68a43.05 43.05 0 0 1 13.46 16.62 52.83 52.83 0 0 1 4.48 22.09q0 24.71-16 40.24z"/><path d="m377.91 243.89-172.93-99.66-172.92 99.66v-217.85l-11.81-5.42v245.47l184.73-106.3 184.73 106.3v-245.47l-11.8 5.41z"/></g><g clip-path="url(#a)"><path d="m353.18 37.38-148.2 67.99-148.21-68v163.51l148.21-85.18 148.2 85.18z" fill="#262525"/><path d="m1123.12 208.36a7.18 7.18 0 0 0 2.77-.55 2.16 2.16 0 0 0 1.31-2.22 2 2 0 0 0 -1.21-2 6.34 6.34 0 0 0 -2.51-.51h-3v5.31zm-6-8.15h6.55a11.17 11.17 0 0 1 2.55.29 6.85 6.85 0 0 1 2.22.95 5 5 0 0 1 1.56 1.67 5.05 5.05 0 0 1 .58 2.55 4.74 4.74 0 0 1 -1.16 3.31 5.83 5.83 0 0 1 -3.13 1.71l5 8.15h-4.07l-4.37-7.78h-2.4v7.78h-3.35v-18.62zm-7.49 9.38a13.48 13.48 0 0 0 1.09 5.38 14.5 14.5 0 0 0 3 4.47 13.91 13.91 0 0 0 19.79 0 14.33 14.33 0 0 0 3-4.47 13.48 13.48 0 0 0 1.09-5.38 13.66 13.66 0 0 0 -1.09-5.46 13.87 13.87 0 0 0 -7.42-7.42 14.18 14.18 0 0 0 -10.91 0 13.87 13.87 0 0 0 -7.42 7.42 13.66 13.66 0 0 0 -1.09 5.46zm-2.62 0a16.06 16.06 0 0 1 1.31-6.44 16.32 16.32 0 0 1 3.57-5.24 17.17 17.17 0 0 1 5.27-3.53 16.5 16.5 0 0 1 12.88 0 17.17 17.17 0 0 1 5.27 3.53 16.46 16.46 0 0 1 3.56 5.24 15.89 15.89 0 0 1 1.31 6.44 15.63 15.63 0 0 1 -1.31 6.4 16.66 16.66 0 0 1 -30.55 0 15.79 15.79 0 0 1 -1.31-6.4z" fill="#fff"/></g></svg>