<svg xmlns="http://www.w3.org/2000/svg" width="101" height="87" viewBox="0 0 101 87"><g fill="none" fill-rule="evenodd" transform="translate(2 2)"><path fill="#E2224C" fill-opacity=".7" stroke="#9C102F" stroke-width="3.45" d="M48.5 83c.866 0 1.732-.324 2.382-.973l33.722-32.422C85.092 49.12 97 38.258 97 25.29 97 9.456 87.31 0 71.126 0 61.653 0 52.776 7.457 48.5 11.672 44.224 7.457 35.347 0 25.874 0 9.689 0 0 9.456 0 25.29c0 12.968 11.908 23.83 12.342 24.207l33.776 32.53c.65.649 1.516.973 2.382.973z"/><path fill="#FFF" d="M54.126 45.284c3.738-.518 7.56.316 10.766 2.348l2.49-3.914a20.684 20.684 0 0 0-13.894-3.027c-7.76 1.077-14.352 6.574-16.791 14.006l4.414 1.444c1.89-5.761 7-10.023 13.015-10.857z"/><ellipse cx="32.359" cy="27.2" fill="#FFF" rx="4.645" ry="4.637"/><ellipse cx="62.771" cy="27.2" fill="#FFF" rx="4.645" ry="4.637"/></g></svg>