<svg xmlns="http://www.w3.org/2000/svg" xmlns:xlink="http://www.w3.org/1999/xlink" width="138" height="41" viewBox="0 0 138 41">
    <defs>
        <path id="a" d="M10.943 2.285c.73-1.348 1.916-1.346 2.646 0l10.96 20.228c.731 1.35.084 2.443-1.46 2.443H1.443c-1.538 0-2.192-1.096-1.462-2.443l10.96-20.228z"/>
    </defs>
    <g fill="none" fill-rule="evenodd">
        <rect width="138" height="40.925" fill="#4C5F66" opacity=".751" rx="7"/>
        <g fill="#FFF">
            <path d="M72.95 6.895c1.765 0 3.196 1.502 3.196 3.355s-1.43 3.355-3.196 3.355c-1.765 0-3.195-1.502-3.195-3.355s1.43-3.355 3.195-3.355zm0 1.025c-1.225 0-2.219 1.043-2.219 2.33 0 1.287.994 2.33 2.22 2.33 1.225 0 2.218-1.043 2.218-2.33 0-1.287-.993-2.33-2.219-2.33zM53.865 7.175v.745H51.29v1.957H53.6v.746l-2.309-.001v2.05h2.575v.746h-3.55V7.175h3.55zM58.836 7.175v.745h-1.51v5.498h-.976V7.92h-1.509v-.745h3.995zM67.535 7.175v.745h-1.51l.001 5.498h-.976V7.92h-1.51v-.745h3.995zM61.677 7.175h.966v6.243h-.966zM77.92 8.545l.001 4.873h-.976V7.175h1.154l2.663 4.569V7.175h.976v6.243h-.976L77.92 8.545zM46.655 9.986h2.674l-.027.841h-2.647z"/>
            <path d="M46.616 6.989c.905 0 1.666.331 2.186.907l-.612.641c-.381-.408-.923-.632-1.548-.632-1.25 0-2.263 1.062-2.263 2.373 0 1.31 1.013 2.373 2.263 2.373s2.137-.758 2.136-2.373c.002-.1 0-.198-.007-.293h.78l.001.034c.284 2.19-1.082 3.48-2.767 3.545l-.17.003c-1.732-.003-3.136-1.473-3.136-3.29 0-1.816 1.404-3.288 3.137-3.288z"/>
        </g>
        <g fill="#FFF">
            <path d="M103.903 18.357s2.898.517 2.898 4.01c0 3.492-2.898 4.009-2.898 4.009h-5.032v-8.02h5.032zm-.634 1.94h-3.422V24.6h3.422c.1-.003 1.55-.074 1.55-2.152 0-2.151-1.555-2.151-1.555-2.151z"/>
            <path d="M98.427 18.357h1.775v13.045h-1.775zM107.837 18.357h1.775v13.045h-1.775zM114.355 22.736c3.087 0 3.613 2.236 3.613 2.989l-.001.005v5.668h-1.775v-.929c-.488.424-1.27.823-2.505.904-2.83.185-2.83-2.525-2.83-2.707v-.024c-.007-.3-.067-2.38 2.11-2.72 1.594-.249 2.71.166 3.226.43v-.383c-.127-.508-.519-1.442-1.696-1.442-1.617 0-1.974.918-1.974.918l-1.479-.918.012-.024c.11-.214.987-1.767 3.299-1.767zm-1.829 5.989c-.119 2.016 3.282 1.048 3.585-.382 0-.454-.046-.668-.046-.668s-3.42-.967-3.539 1.05zM119.91 23.016l2.276 5.679 2.26-5.634h1.776l-4.804 11.975h-1.775l1.656-4.128-3.165-7.892h1.775zM90.697 22.736c2.977 0 3.755 3.33 3.755 3.33L88.837 28.5s.363 1.348 2.051 1.357c1.322.007 2.068-1.23 2.068-1.23l1.425 1.012s-1.15 1.952-3.504 1.952c-2.893 0-4.168-2.656-4.168-4.38 0-1.662 1.012-4.476 3.988-4.476zm-.17 1.72c-2.293.44-2.004 2.545-2.004 2.545l3.793-1.626s-.706-1.128-1.79-.92zM84.046 18.357h1.878v13.018h-1.878zM78.716 22.738c1.57-.047 2.325 1.094 2.325 1.094v-.813l1.736.016v8.214c0 2.099-1.19 4.314-3.993 4.314-2.802 0-3.707-2.606-3.707-2.606l1.595-.704s.486 1.606 2.195 1.606c1.947 0 2.174-1.859 2.174-2.495v-.892s-.674 1.107-2.346 1.107c-1.814 0-3.97-1.631-3.97-4.412 0-2.78 2.03-4.371 3.99-4.43zm.127 1.733c-1.266 0-2.293 1.218-2.293 2.72 0 1.501 1.027 2.719 2.293 2.719 1.266 0 2.292-1.218 2.292-2.72 0-1.501-1.026-2.719-2.292-2.719zM69.72 22.736c2.334 0 4.226 1.982 4.226 4.426 0 2.445-1.892 4.427-4.226 4.427s-4.226-1.982-4.226-4.427c0-2.444 1.892-4.426 4.226-4.426zm-.028 1.736c-1.312 0-2.375 1.205-2.375 2.69 0 1.486 1.063 2.69 2.375 2.69s2.375-1.204 2.375-2.69c0-1.485-1.063-2.69-2.375-2.69zM60.576 22.736c2.334 0 4.227 1.982 4.227 4.426 0 2.445-1.893 4.427-4.227 4.427-2.334 0-4.226-1.982-4.226-4.427 0-2.444 1.892-4.426 4.226-4.426zm-.027 1.736c-1.312 0-2.376 1.205-2.376 2.69 0 1.486 1.064 2.69 2.376 2.69 1.312 0 2.375-1.204 2.375-2.69 0-1.485-1.063-2.69-2.375-2.69z"/>
            <g>
                <path d="M49.664 24.14h5.58l-.056 1.851h-5.524z"/>
                <path d="M49.581 17.89c1.89 0 3.479.692 4.565 1.893l-1.277 1.338c-.796-.853-1.927-1.32-3.233-1.32-2.608 0-4.723 2.214-4.723 4.946 0 2.732 2.115 4.947 4.723 4.947 2.61 0 4.461-1.58 4.457-4.947.005-.208 0-.411-.013-.608h1.628l.002.07c.601 4.623-2.336 7.324-5.917 7.393l-.212.001c-3.615-.005-6.546-3.07-6.546-6.856s2.93-6.856 6.546-6.856z"/>
            </g>
        </g>
        <g transform="translate(11.676 7.268)">
            <mask id="b" fill="#fff">
                <use xlink:href="#a"/>
            </mask>
            <use stroke="#FFF" transform="rotate(90 12.266 13.148)" xlink:href="#a"/>
            <path d="M1-.01l12.409 12.947L.839 26.395z" mask="url(#b)"/>
            <path stroke="#FFF" d="M-1.552-2.674l14.96 15.615 4.447-4.454z" mask="url(#b)"/>
            <path stroke="#FFF" d="M13.41 12.938l6.808 7.204-20.34 7.204z" mask="url(#b)"/>
        </g>
    </g>
</svg>
