<svg width="15" height="23" viewBox="0 0 15 23" xmlns="http://www.w3.org/2000/svg"><title>silverware icon</title><g fill="#262525" fill-rule="evenodd"><path d="M12.046 22.212c-1.001 0-1.826-.82-1.914-1.826V.306c1.001 0 4.563 2.464 4.563 5.477 0 3.013-1.825 4.927-1.825 5.933 0 2.007.726 5.201.913 8.577.088 1.006-.731 1.919-1.737 1.919z"/><path d="M5.48 20.386L5.3 9.434l2.007-2.738-.913-6.39H5.48v5.02c0 .275-.181.457-.456.457s-.456-.182-.456-.456c0-.093-.364-5.02-.364-5.02H3.106s-.364 4.927-.364 5.02c0 .274-.181.456-.456.456s-.456-.182-.456-.456V.307H.917L.004 6.696l2.007 2.738-.181 10.952c0 1.006.82 1.826 1.732 1.826 1.099 0 1.918-.82 1.918-1.826z"/></g></svg>